<?xml version="1.0" encoding="UTF-8" standalone="no"?>
<!DOCTYPE svg PUBLIC "-//W3C//DTD SVG 1.1//EN" "http://www.w3.org/Graphics/SVG/1.1/DTD/svg11.dtd">
<svg version="1.1" xmlns="http://www.w3.org/2000/svg" xmlns:xlink="http://www.w3.org/1999/xlink" preserveAspectRatio="xMidYMid meet" viewBox="0 0 17 13" width="17" height="13"><defs><path d="M10.36 0.8L10.37 0.8L10.37 0.8L10.38 0.8L10.39 0.8L10.4 0.8L10.4 0.81L10.41 0.81L10.42 0.81L10.42 0.82L10.43 0.82L10.44 0.82L10.44 0.83L10.45 0.83L10.45 0.83L10.46 0.84L10.47 0.84L10.47 0.85L10.48 0.85L10.48 0.86L10.49 0.86L10.49 0.87L10.5 0.88L10.5 0.88L10.5 0.89L10.51 0.89L10.51 0.9L10.51 0.91L10.52 0.91L10.52 0.92L10.52 0.93L10.53 0.93L10.53 0.94L10.53 0.95L10.53 0.96L10.53 0.96L10.53 0.97L10.53 0.98L10.53 0.99L10.53 4.79L14.33 4.79L14.34 4.79L14.35 4.79L14.36 4.79L14.37 4.79L14.37 4.79L14.38 4.79L14.39 4.8L14.39 4.8L14.4 4.8L14.41 4.8L14.42 4.81L14.42 4.81L14.43 4.81L14.43 4.82L14.44 4.82L14.45 4.83L14.45 4.83L14.46 4.83L14.46 4.84L14.47 4.84L14.47 4.85L14.48 4.86L14.48 4.86L14.49 4.87L14.49 4.87L14.5 4.88L14.5 4.89L14.5 4.89L14.51 4.9L14.51 4.91L14.51 4.91L14.51 4.92L14.52 4.93L14.52 4.93L14.52 4.94L14.52 4.95L14.52 4.96L14.52 4.96L14.52 4.97L14.52 4.98L14.52 8.02L14.52 8.03L14.52 8.04L14.52 8.04L14.52 8.05L14.52 8.06L14.52 8.07L14.52 8.07L14.51 8.08L14.51 8.09L14.51 8.09L14.51 8.1L14.5 8.11L14.5 8.11L14.5 8.12L14.49 8.13L14.49 8.13L14.48 8.14L14.48 8.14L14.47 8.15L14.47 8.16L14.46 8.16L14.46 8.17L14.45 8.17L14.45 8.17L14.44 8.18L14.43 8.18L14.43 8.19L14.42 8.19L14.42 8.19L14.41 8.2L14.4 8.2L14.39 8.2L14.39 8.2L14.38 8.21L14.37 8.21L14.37 8.21L14.36 8.21L14.35 8.21L14.34 8.21L14.33 8.21L10.53 8.21L10.53 12.01L10.53 12.02L10.53 12.03L10.53 12.04L10.53 12.04L10.53 12.05L10.53 12.06L10.53 12.07L10.52 12.07L10.52 12.08L10.52 12.09L10.51 12.09L10.51 12.1L10.51 12.11L10.5 12.11L10.5 12.12L10.5 12.12L10.49 12.13L10.49 12.14L10.48 12.14L10.48 12.15L10.47 12.15L10.47 12.16L10.46 12.16L10.45 12.17L10.45 12.17L10.44 12.17L10.44 12.18L10.43 12.18L10.42 12.18L10.42 12.19L10.41 12.19L10.4 12.19L10.4 12.2L10.39 12.2L10.38 12.2L10.37 12.2L10.37 12.2L10.36 12.2L10.35 12.2L10.34 12.2L7.3 12.2L7.29 12.2L7.29 12.2L7.28 12.2L7.27 12.2L7.26 12.2L7.26 12.2L7.25 12.2L7.24 12.19L7.23 12.19L7.23 12.19L7.22 12.18L7.21 12.18L7.21 12.18L7.2 12.17L7.19 12.17L7.19 12.17L7.18 12.16L7.18 12.16L7.17 12.15L7.17 12.15L7.16 12.14L7.16 12.14L7.15 12.13L7.15 12.12L7.14 12.12L7.14 12.11L7.14 12.11L7.13 12.1L7.13 12.09L7.13 12.09L7.12 12.08L7.12 12.07L7.12 12.07L7.12 12.06L7.11 12.05L7.11 12.04L7.11 12.04L7.11 12.03L7.11 12.02L7.11 12.01L7.11 8.21L3.31 8.21L3.3 8.21L3.29 8.21L3.29 8.21L3.28 8.21L3.27 8.21L3.26 8.21L3.26 8.2L3.25 8.2L3.24 8.2L3.24 8.2L3.23 8.19L3.22 8.19L3.22 8.19L3.21 8.18L3.2 8.18L3.2 8.17L3.19 8.17L3.19 8.17L3.18 8.16L3.17 8.16L3.17 8.15L3.16 8.14L3.16 8.14L3.16 8.13L3.15 8.13L3.15 8.12L3.14 8.11L3.14 8.11L3.14 8.1L3.13 8.09L3.13 8.09L3.13 8.08L3.13 8.07L3.12 8.07L3.12 8.06L3.12 8.05L3.12 8.04L3.12 8.04L3.12 8.03L3.12 8.02L3.12 4.98L3.12 4.97L3.12 4.96L3.12 4.96L3.12 4.95L3.12 4.94L3.12 4.93L3.13 4.93L3.13 4.92L3.13 4.91L3.13 4.91L3.14 4.9L3.14 4.89L3.14 4.89L3.15 4.88L3.15 4.87L3.16 4.87L3.16 4.86L3.16 4.86L3.17 4.85L3.17 4.84L3.18 4.84L3.19 4.83L3.19 4.83L3.2 4.83L3.2 4.82L3.21 4.82L3.22 4.81L3.22 4.81L3.23 4.81L3.24 4.8L3.24 4.8L3.25 4.8L3.26 4.8L3.26 4.79L3.27 4.79L3.28 4.79L3.29 4.79L3.29 4.79L3.3 4.79L3.31 4.79L7.11 4.79L7.11 0.99L7.11 0.98L7.11 0.97L7.11 0.96L7.11 0.96L7.11 0.95L7.12 0.94L7.12 0.93L7.12 0.93L7.12 0.92L7.13 0.91L7.13 0.91L7.13 0.9L7.14 0.89L7.14 0.89L7.14 0.88L7.15 0.88L7.15 0.87L7.16 0.86L7.16 0.86L7.17 0.85L7.17 0.85L7.18 0.84L7.18 0.84L7.19 0.83L7.19 0.83L7.2 0.83L7.21 0.82L7.21 0.82L7.22 0.82L7.23 0.81L7.23 0.81L7.24 0.81L7.25 0.8L7.26 0.8L7.26 0.8L7.27 0.8L7.28 0.8L7.29 0.8L7.29 0.8L7.3 0.8L10.34 0.8L10.35 0.8L10.36 0.8Z" id="a1cIFmWvLm"></path></defs><g><g><g><use xlink:href="#a1cIFmWvLm" opacity="1" fill="#0399ff" fill-opacity="1"></use></g></g></g></svg>